<?xml version="1.0" encoding="UTF-8" standalone="no"?>
<svg
   xmlns:dc="http://purl.org/dc/elements/1.1/"
   xmlns:cc="http://creativecommons.org/ns#"
   xmlns:rdf="http://www.w3.org/1999/02/22-rdf-syntax-ns#"
   xmlns:svg="http://www.w3.org/2000/svg"
   xmlns="http://www.w3.org/2000/svg"
   xmlns:sodipodi="http://sodipodi.sourceforge.net/DTD/sodipodi-0.dtd"
   xmlns:inkscape="http://www.inkscape.org/namespaces/inkscape"
   viewBox="-597.08493 193.11991 74.135195 74.13519"
   version="1.1"
   id="svg4"
   sodipodi:docname="profiGEO_colors_icon.svg"
   inkscape:version="0.92.5 (2060ec1f9f, 2020-04-08)"
   width="74.135193"
   height="74.135193">
  <metadata
     id="metadata10">
    <rdf:RDF>
      <cc:Work
         rdf:about="">
        <dc:format>image/svg+xml</dc:format>
        <dc:type
           rdf:resource="http://purl.org/dc/dcmitype/StillImage" />
        <dc:title></dc:title>
      </cc:Work>
    </rdf:RDF>
  </metadata>
  <defs
     id="defs8" />
  <sodipodi:namedview
     pagecolor="#ffffff"
     bordercolor="#666666"
     borderopacity="1"
     objecttolerance="10"
     gridtolerance="10"
     guidetolerance="10"
     inkscape:pageopacity="0"
     inkscape:pageshadow="2"
     inkscape:window-width="1640"
     inkscape:window-height="1025"
     id="namedview6"
     showgrid="false"
     inkscape:zoom="3.0814436"
     inkscape:cx="125.01313"
     inkscape:cy="10.943005"
     inkscape:window-x="40"
     inkscape:window-y="0"
     inkscape:window-maximized="1"
     inkscape:current-layer="svg4" />
  <path
     style="fill:#ff5b02;fill-opacity:1"
     inkscape:connector-curvature="0"
     id="path2"
     d="m -562.04403,192.98782 c -0.90687,0.0198 -1.66323,0.0675 -2.08594,0.14648 -7.25121,1.35542 -12.75899,3.51537 -17.33008,6.79688 -7.86567,5.64663 -12.46824,12.70766 -15.00195,23.01367 -0.88999,3.62007 -0.84785,9.96908 0.0937,14.1543 0.86773,3.85687 1.83106,6.64493 3.33594,9.6582 5.64667,11.3065 16.03545,18.48282 29.69531,20.51172 1.76315,0.26188 6.89997,0.0999 8.04102,-0.25391 0.45319,-0.14051 1.83533,-0.4551 3.07226,-0.69922 4.80914,-0.94913 10.5387,-3.53211 14.57227,-6.57031 10.12509,-7.6265 15.84231,-20.59357 14.53515,-32.96484 -1.03715,-9.81578 -5.22409,-18.05124 -12.42968,-24.45117 -4.42451,-3.9298 -10.76289,-7.10672 -16.41211,-8.22461 -1.23692,-0.24477 -2.46944,-0.56085 -2.73828,-0.70313 -0.54471,-0.28829 -4.62705,-0.4736 -7.34766,-0.41406 z m 0.53516,11.39844 c 5.28323,-0.14383 10.44582,0.75041 14.38672,2.52343 3.42371,1.54035 9.45117,5.7984 9.45117,6.67774 0,0.29222 -0.86161,1.37918 -1.97266,2.49023 -2.73243,2.73244 -2.97004,2.71683 -7.55078,-0.52539 -4.77952,-3.38292 -8.66492,-4.75593 -13.49609,-4.76953 -2.52167,-0.007 -3.35962,0.0984 -4.89454,0.61914 -5.82751,1.97714 -10.20119,5.62421 -12.57226,10.48438 -2.50134,5.12718 -2.45681,9.95898 0.13867,15.3457 4.24737,8.81509 15.03411,13.55743 23.81641,10.4707 4.3273,-1.52092 8.13735,-5.1293 10.18554,-9.64648 0.43379,-0.95671 0.78907,-1.91915 0.78907,-2.14063 0,-0.35018 -0.89839,-0.40234 -6.89649,-0.40234 -4.248,0 -7.09297,-0.10669 -7.4082,-0.27539 -0.45327,-0.24256 -0.51172,-0.57373 -0.51172,-2.90039 0,-2.32666 0.0585,-2.65783 0.51172,-2.90039 0.54515,-0.29175 20.57199,-0.39675 21.62891,-0.11328 0.8496,0.22786 0.91641,0.66507 0.59375,3.89257 -0.4645,4.64631 -1.5599,8.27951 -3.45899,11.48047 -1.24987,2.10667 -4.7616,5.56373 -7.03125,6.92188 -2.1632,1.29445 -5.7923,2.54757 -8.45898,2.92187 -4.82016,0.67655 -11.52871,0.40044 -14.97266,-0.61719 -6.04374,-1.78581 -10.81173,-5.19639 -14.15234,-10.12304 -6.65982,-9.82174 -5.37723,-23.60182 2.97656,-31.98047 4.54171,-4.55524 9.43347,-6.70573 16.62891,-7.30859 0.75639,-0.0634 1.51478,-0.10446 2.26953,-0.125 z" />
</svg>
