<?xml version="1.0" encoding="UTF-8" standalone="no"?>
<svg
   xmlns:dc="http://purl.org/dc/elements/1.1/"
   xmlns:cc="http://creativecommons.org/ns#"
   xmlns:rdf="http://www.w3.org/1999/02/22-rdf-syntax-ns#"
   xmlns:svg="http://www.w3.org/2000/svg"
   xmlns="http://www.w3.org/2000/svg"
   xmlns:sodipodi="http://sodipodi.sourceforge.net/DTD/sodipodi-0.dtd"
   xmlns:inkscape="http://www.inkscape.org/namespaces/inkscape"
   viewBox="-597.08493 193.11991 351.55197999999996 74.13519000000002"
   version="1.1"
   id="svg4"
   sodipodi:docname="profiGEO_colors.svg"
   inkscape:version="0.92.5 (2060ec1f9f, 2020-04-08)">
  <metadata
     id="metadata10">
    <rdf:RDF>
      <cc:Work
         rdf:about="">
        <dc:format>image/svg+xml</dc:format>
        <dc:type
           rdf:resource="http://purl.org/dc/dcmitype/StillImage" />
      </cc:Work>
    </rdf:RDF>
  </metadata>
  <defs
     id="defs8" />
  <sodipodi:namedview
     pagecolor="#ffffff"
     bordercolor="#666666"
     borderopacity="1"
     objecttolerance="10"
     gridtolerance="10"
     guidetolerance="10"
     inkscape:pageopacity="0"
     inkscape:pageshadow="2"
     inkscape:window-width="1640"
     inkscape:window-height="1025"
     id="namedview6"
     showgrid="false"
     inkscape:zoom="3.0814436"
     inkscape:cx="170.44638"
     inkscape:cy="10.943005"
     inkscape:window-x="40"
     inkscape:window-y="0"
     inkscape:window-maximized="1"
     inkscape:current-layer="svg4" />
  <g
     id="g10"
     transform="translate(-0.64099856)">
    <path
       style="fill:#ff5b02;fill-opacity:1"
       inkscape:connector-curvature="0"
       id="path2"
       d="m -562.02604,193.13104 c -0.90687,0.0198 -1.66323,0.0675 -2.08594,0.14648 -7.25121,1.35542 -12.75899,3.51537 -17.33008,6.79688 -7.86567,5.64663 -12.46824,12.70766 -15.00195,23.01367 -0.88999,3.62007 -0.84785,9.96908 0.0937,14.1543 0.86773,3.85687 1.83106,6.64493 3.33594,9.6582 5.64667,11.3065 16.03545,18.48282 29.69531,20.51172 1.76315,0.26188 6.89997,0.0999 8.04102,-0.25391 0.45319,-0.14051 1.83533,-0.4551 3.07226,-0.69922 4.80914,-0.94913 10.5387,-3.53211 14.57227,-6.57031 10.12509,-7.6265 15.84231,-20.59357 14.53515,-32.96484 -1.03715,-9.81578 -5.22409,-18.05124 -12.42968,-24.45117 -4.42451,-3.9298 -10.76289,-7.10672 -16.41211,-8.22461 -1.23692,-0.24477 -2.46944,-0.56085 -2.73828,-0.70313 -0.54471,-0.28829 -4.62705,-0.4736 -7.34766,-0.41406 z m 0.53516,11.39844 c 5.28323,-0.14383 10.44582,0.75041 14.38672,2.52343 3.42371,1.54035 9.45117,5.7984 9.45117,6.67774 0,0.29222 -0.86161,1.37918 -1.97266,2.49023 -2.73243,2.73244 -2.97004,2.71683 -7.55078,-0.52539 -4.77952,-3.38292 -8.66492,-4.75593 -13.49609,-4.76953 -2.52167,-0.007 -3.35962,0.0984 -4.89454,0.61914 -5.82751,1.97714 -10.20119,5.62421 -12.57226,10.48438 -2.50134,5.12718 -2.45681,9.95898 0.13867,15.3457 4.24737,8.81509 15.03411,13.55743 23.81641,10.4707 4.3273,-1.52092 8.13735,-5.1293 10.18554,-9.64648 0.43379,-0.95671 0.78907,-1.91915 0.78907,-2.14063 0,-0.35018 -0.89839,-0.40234 -6.89649,-0.40234 -4.248,0 -7.09297,-0.10669 -7.4082,-0.27539 -0.45327,-0.24256 -0.51172,-0.57373 -0.51172,-2.90039 0,-2.32666 0.0585,-2.65783 0.51172,-2.90039 0.54515,-0.29175 20.57199,-0.39675 21.62891,-0.11328 0.8496,0.22786 0.91641,0.66507 0.59375,3.89257 -0.4645,4.64631 -1.5599,8.27951 -3.45899,11.48047 -1.24987,2.10667 -4.7616,5.56373 -7.03125,6.92188 -2.1632,1.29445 -5.7923,2.54757 -8.45898,2.92187 -4.82016,0.67655 -11.52871,0.40044 -14.97266,-0.61719 -6.04374,-1.78581 -10.81173,-5.19639 -14.15234,-10.12304 -6.65982,-9.82174 -5.37723,-23.60182 2.97656,-31.98047 4.54171,-4.55524 9.43347,-6.70573 16.62891,-7.30859 0.75639,-0.0634 1.51478,-0.10446 2.26953,-0.125 z" />
    <path
       inkscape:connector-curvature="0"
       id="path47"
       d="m -269.849,199.44582 c -3.25252,-0.0435 -6.50769,0.41375 -9.37695,1.39258 -8.33286,2.84272 -14.11837,9.62117 -15.95703,18.69531 -0.61381,3.02925 -0.4085,9.08277 0.40234,11.86915 2.80654,9.64444 10.30767,16.1207 20.54102,17.73437 2.75852,0.43497 8.11572,0.12889 11.08789,-0.63477 8.78062,-2.25606 15.10182,-8.4296 17.6543,-17.24218 0.53323,-1.84103 0.60547,-2.66842 0.60547,-6.98242 0,-4.31214 -0.0728,-5.14701 -0.60743,-7.01172 -1.85803,-6.48036 -6.65187,-12.25789 -12.63281,-15.22071 -3.35538,-1.66217 -7.53498,-2.54371 -11.7168,-2.59961 z m -95.7246,0.0312 c -11.87018,0.30224 -20.85266,6.66734 -24.32227,17.39063 -0.63517,1.96306 -0.74416,2.7894 -0.85156,6.49805 -0.13677,4.72265 0.17875,6.95875 1.42383,10.11914 3.28107,8.32847 10.78378,14.14831 19.81835,15.37304 1.16072,0.15735 2.46774,0.33664 2.9043,0.39844 1.4054,0.19892 6.96756,-0.11383 9.31641,-0.52344 8.54056,-1.48935 14.97916,-7.66198 16.99218,-16.29101 0.68466,-2.935 1.11179,-7.39565 0.75,-7.83789 -0.21319,-0.26058 -2.59752,-0.31767 -10.88671,-0.26367 l -10.61524,0.0683 v 2.64649 2.64648 l 7.14453,0.13086 7.14258,0.13282 -0.0391,0.86523 c -0.091,1.98676 -2.93634,6.57728 -5.42188,8.74805 -1.55744,1.3602 -3.91282,2.65884 -6.17968,3.40625 -2.74546,0.90521 -7.46425,1.01582 -10.1875,0.23828 -9.21539,-2.63117 -15.60938,-10.49275 -15.60938,-19.19141 0,-7.77838 5.50049,-14.97125 13.72852,-17.94726 6.70644,-2.42566 12.89922,-1.01637 21.27734,4.84179 1.22472,0.85635 2.34678,1.44532 2.75781,1.44532 0.51128,0 1.21963,-0.52947 2.69727,-2.01172 l 2.0039,-2.00977 -1.1914,-1.03711 c -0.65484,-0.57127 -2.14247,-1.67771 -3.30664,-2.45898 -5.35697,-3.59507 -10.00344,-5.06461 -16.9336,-5.35547 -0.81622,-0.0343 -1.62076,-0.0416 -2.4121,-0.0215 z m 35.48437,1.11914 -0.0664,23.7461 -0.0684,23.74805 h 14.03516 14.0332 l -0.0762,-2.58008 -0.0762,-2.58008 -10.71484,-0.13281 -10.71485,-0.13086 -0.0703,-8.44922 c -0.0545,-6.58303 0.003,-8.49666 0.26367,-8.66211 0.18399,-0.11679 5.07161,-0.21284 10.86133,-0.21484 l 10.52734,-0.004 -0.0762,-2.58008 -0.0762,-2.58008 -10.71484,-0.13281 -10.71485,-0.13086 -0.0703,-6.91406 -0.0723,-6.91406 0.60157,-0.16016 c 0.3298,-0.0884 5.27522,-0.16206 10.99218,-0.16406 l 10.39454,-0.004 -0.0742,-2.58008 -0.0762,-2.58008 h -14.02343 z m 59.71289,4.25977 c 0.5821,0.001 1.17323,0.0431 1.79492,0.12109 8.07728,1.0128 15.04696,7.18509 16.8125,14.88672 0.46791,2.04105 0.54298,6.24575 0.14844,8.29688 -0.44884,2.33346 -1.84314,5.54361 -3.27734,7.54297 -2.63398,3.67202 -7.50417,6.881 -11.77344,7.75586 -4.11157,0.84253 -7.66057,0.36196 -11.41797,-1.54688 -9.45224,-4.80198 -13.51484,-15.84996 -9.27148,-25.21289 2.21017,-4.87671 6.5185,-8.92074 11.40234,-10.70312 2.16912,-0.79161 3.83574,-1.14504 5.58203,-1.14063 z m -142.79102,2.38086 c -3.91541,-0.0102 -5.02097,0.32258 -7.01171,2.12109 -1.759,1.58915 -2.6322,3.75023 -3.0625,7.56836 -0.0938,0.83239 -0.30999,1.62771 -0.47852,1.76758 -0.16854,0.13987 -0.83824,0.29344 -1.49023,0.33984 l -1.18555,0.084 v 1.98437 1.98438 l 0.92578,0.0703 c 0.50933,0.0393 1.19406,0.13248 1.52149,0.20508 l 0.59374,0.13086 v 11.59375 c 0,6.37589 0.0851,11.67492 0.1875,11.77734 0.10241,0.10225 1.14357,0.15313 2.31446,0.11133 l 2.1289,-0.0762 0.0684,-11.48633 c 0.0469,-7.80384 0.16148,-11.59592 0.35743,-11.83203 0.20861,-0.25135 1.36237,-0.36898 4.16601,-0.42188 l 3.875,-0.0723 v -1.98438 -1.98437 l -4.00781,-0.0723 c -2.84277,-0.0517 -4.08919,-0.17167 -4.28711,-0.41015 -0.34025,-0.40997 0.0421,-3.46188 0.60156,-4.80078 0.4777,-1.14329 2.07191,-2.20402 3.63281,-2.41797 0.74098,-0.10156 2.05248,0.004 3.37305,0.27148 1.18867,0.24089 2.27557,0.3661 2.41602,0.2793 0.14045,-0.0868 0.25586,-1.04639 0.25586,-2.13281 0,-1.904 -0.0252,-1.98503 -0.72657,-2.28125 -0.42238,-0.17839 -2.1713,-0.31141 -4.16797,-0.31641 z m 6.87891,2.0918 -0.0781,2.22656 c -0.0427,1.22476 -0.0159,2.38601 0.0586,2.58008 0.0998,0.26004 0.80032,0.35156 2.66602,0.35156 h 2.5332 l -0.0762,-2.58008 -0.0762,-2.57812 h -2.51368 z m -38.76172,8.59765 c -7.96409,0 -12.91748,5.78378 -12.95508,15.125 -0.0189,4.70195 1.23657,8.46 3.73829,11.19727 1.52879,1.67274 3.00077,2.62103 5.19531,3.3457 1.20384,0.39754 2.12349,0.48177 4.55469,0.41797 2.79513,-0.0733 3.1995,-0.1507 4.88086,-0.9375 3.33404,-1.5602 5.34767,-3.77572 6.68359,-7.35156 0.58826,-1.57459 0.69766,-2.35572 0.80078,-5.78906 0.14075,-4.68595 -0.2073,-6.59821 -1.7207,-9.49415 -2.24074,-4.28774 -6.05867,-6.51367 -11.17774,-6.51367 z m -51.40234,0.0352 c -2.25365,0.0435 -4.26182,0.67919 -6.63672,2.07422 -0.9984,0.58647 -1.90767,1.0664 -2.02148,1.0664 -0.28064,0 -0.5293,-0.6961 -0.5293,-1.48632 0,-0.64668 -0.0114,-0.65032 -2.31445,-0.57422 l -2.31446,0.0762 -0.0684,19.05078 c -0.0377,10.4775 -0.0129,19.19701 0.0566,19.37891 0.0874,0.22887 0.82271,0.33203 2.38477,0.33203 h 2.25586 l 0.004,-5.35742 c 0.002,-2.9468 0.10185,-5.51191 0.2207,-5.69922 0.16961,-0.26732 0.74091,-0.16514 2.65625,0.47656 5.27842,1.76843 9.97138,0.73359 13.38281,-2.95117 2.81684,-3.04252 3.93727,-6.41016 3.94727,-11.86914 0.01,-5.27085 -1.1452,-8.91083 -3.68946,-11.63086 -1.7697,-1.89195 -3.61699,-2.72757 -6.35156,-2.8711 -0.33375,-0.0175 -0.66047,-0.0218 -0.98242,-0.0156 z m 35.48633,0.86328 c -1.37528,-0.0613 -5.04957,0.45604 -6.35352,0.94531 -0.77555,0.291 -2.2341,1.01345 -3.24219,1.60352 -1.00809,0.59007 -1.99114,1.0114 -2.18359,0.9375 -0.237,-0.0909 -0.34961,-0.65244 -0.34961,-1.74024 v -1.60546 l -2.31641,0.0762 -2.31445,0.0762 -0.0684,13.625 c -0.0379,7.49432 -0.0131,13.77513 0.0566,13.95703 0.0876,0.22885 0.8229,0.33203 2.38477,0.33203 h 2.25781 v -10.04492 c 0,-11.68659 -0.39532,-10.32487 3.57227,-12.33398 2.43566,-1.23338 2.4504,-1.23774 5.85156,-1.40235 l 3.4082,-0.16406 0.0762,-2.01758 c 0.0626,-1.64746 -5.6e-4,-2.048 -0.34375,-2.17969 -0.089,-0.0341 -0.23907,-0.0557 -0.43554,-0.0644 z m 54.94336,0.29297 -0.0703,13.625 c -0.0378,7.49432 -0.009,13.78093 0.0625,13.96875 0.0957,0.24978 0.71848,0.31997 2.31836,0.26367 l 2.18555,-0.0762 v -13.89063 -13.89062 h -2.24805 z m -90.66993,2.98047 c 2.58792,0.1221 4.51393,1.62226 5.6211,4.47265 0.48828,1.2571 0.6225,2.22553 0.7207,5.22852 0.13214,4.03975 -0.13069,5.8329 -1.15234,7.85742 -0.82004,1.62502 -2.06671,2.83081 -3.6836,3.56641 -2.37415,1.08011 -4.81825,1.01624 -8.53125,-0.22461 l -1.78906,-0.59766 -0.0703,-8.51953 -0.0684,-8.51758 1.78906,-1.03711 c 2.73831,-1.58536 5.15124,-2.32348 7.16406,-2.22851 z m 52.27735,0.0918 c 0.90987,0.0361 1.75668,0.18435 2.35547,0.44922 2.08575,0.92263 3.03109,1.82849 4.02148,3.85352 1.47068,3.00706 1.74805,7.78458 0.67188,11.54687 -0.73047,2.55372 -2.9147,4.95114 -5.03711,5.5293 -6.40861,1.74573 -10.8307,-2.50634 -10.8418,-10.42773 -0.007,-5.21945 1.54111,-8.65842 4.61133,-10.24219 1.01009,-0.52106 2.7023,-0.76912 4.21875,-0.70899 z"
       style="fill:#000000" />
  </g>
</svg>
