<svg xmlns="http://www.w3.org/2000/svg" viewBox="-597.08493 193.11991 351.55197999999996 74.13519000000002">
  <path d="m -563.95898,267.2551 c -13.65986,-2.0289 -24.05052,-9.20593 -29.69719,-20.51243 -1.50488,-3.01327 -2.46743,-5.80042 -3.33516,-9.65729 -0.9416,-4.18522 -0.98359,-10.53514 -0.0936,-14.15521 2.53371,-10.30601 7.13632,-17.3664 15.00199,-23.01303 4.57109,-3.28151 10.079,-5.44181 17.33021,-6.79723 1.69083,-0.31605 8.70681,-0.11772 9.43309,0.26667 0.26884,0.14228 1.50082,0.45895 2.73774,0.70372 5.64922,1.11789 11.98858,4.29439 16.41309,8.22419 7.20559,6.39993 11.39232,14.63636 12.42947,24.45214 1.30716,12.37127 -4.41025,25.33754 -14.53534,32.96404 -4.03357,3.0382 -9.76266,5.62155 -14.5718,6.57068 -1.23693,0.24412 -2.61975,0.55882 -3.07294,0.69933 -1.14105,0.35379 -6.27641,0.5163 -8.03956,0.25442 z m 9.07636,-12.72837 c 2.66668,-0.3743 6.29749,-1.62876 8.46069,-2.92321 2.26965,-1.35815 5.78086,-4.81479 7.03073,-6.92146 1.89909,-3.20096 2.99342,-6.83419 3.45792,-11.4805 0.32266,-3.2275 0.25611,-3.66384 -0.59349,-3.8917 -1.05692,-0.28347 -21.08363,-0.17984 -21.62878,0.11191 -0.45322,0.24256 -0.51177,0.57445 -0.51177,2.90111 0,2.32666 0.0585,2.65855 0.51177,2.90111 0.31523,0.1687 3.16034,0.27389 7.40834,0.27389 5.9981,0 6.89656,0.0525 6.89656,0.40268 0,0.22148 -0.35492,1.18545 -0.78871,2.14216 -2.04819,4.51718 -5.85778,8.12516 -10.18508,9.64608 -8.7823,3.08673 -19.57018,-1.65604 -23.81755,-10.47113 -2.59548,-5.38672 -2.63875,-10.21865 -0.13741,-15.34583 2.37107,-4.86017 6.74395,-8.50699 12.57146,-10.48413 1.53492,-0.52077 2.37312,-0.62691 4.89479,-0.61982 4.83117,0.0136 8.71628,1.3866 13.4958,4.76952 4.58074,3.24222 4.81895,3.25883 7.55138,0.52639 1.11105,-1.11105 1.97157,-2.19789 1.97157,-2.49011 0,-0.87934 -6.0263,-5.13839 -9.45001,-6.67874 -4.50388,-2.02631 -10.60547,-2.9046 -16.65659,-2.39761 -7.19544,0.60286 -12.08834,2.75312 -16.63005,7.30836 -8.35379,8.37865 -9.63629,22.15827 -2.97647,31.98001 3.34061,4.92665 8.1088,8.33726 14.15254,10.12308 3.44395,1.01763 10.1522,1.29449 14.97236,0.61794 z m 43.96198,2.86542 c -0.0695,-0.1819 -0.0955,-8.90323 -0.0578,-19.38073 l 0.0685,-19.05 2.31511,-0.0764 c 2.30303,-0.0761 2.3151,-0.073 2.3151,0.57368 0,0.79022 0.2475,1.48714 0.52814,1.48714 0.11381,0 1.02381,-0.47984 2.02221,-1.06631 2.71417,-1.59432 4.94938,-2.19802 7.6194,-2.05788 2.73457,0.14353 4.58101,0.97794 6.35071,2.86989 2.54426,2.72003 3.69905,6.36053 3.68952,11.63139 -0.01,5.45898 -1.12971,8.82698 -3.94655,11.8695 -3.41143,3.68476 -8.10451,4.7197 -13.38293,2.95127 -1.91534,-0.6417 -2.4867,-0.74429 -2.65631,-0.47697 -0.11885,0.18731 -0.21791,2.75159 -0.22014,5.69839 l -0.004,5.35776 h -2.25726 c -1.56206,0 -2.29616,-0.10186 -2.38356,-0.33073 z m 15.09347,-14.32415 c 1.61689,-0.7356 2.86275,-1.94243 3.68279,-3.56745 1.02165,-2.02452 1.28464,-3.81746 1.1525,-7.85721 -0.0982,-3.003 -0.23164,-3.97203 -0.71992,-5.22913 -1.96829,-5.06737 -6.52675,-5.86726 -12.78573,-2.24357 l -1.78958,1.03609 0.0698,8.51901 0.0698,8.51901 1.78935,0.59798 c 3.713,1.24085 6.15686,1.30538 8.53101,0.22527 z m 128.58589,6.03252 c -0.43656,-0.0618 -1.74343,-0.24109 -2.90415,-0.39844 -9.03457,-1.22473 -16.53827,-7.04532 -19.81934,-15.37379 -1.24507,-3.1604 -1.5593,-5.39544 -1.42253,-10.11809 0.1074,-3.70865 0.21555,-4.53468 0.85072,-6.49774 3.70092,-11.43818 13.67525,-17.91892 26.73489,-17.37079 6.93016,0.29086 11.57636,1.76027 16.93333,5.35534 1.16417,0.78127 2.65245,1.88789 3.30729,2.45916 l 1.19063,1.03868 -2.00358,2.00985 c -1.47764,1.48225 -2.18556,2.00984 -2.69684,2.00984 -0.41103,0 -1.5342,-0.588 -2.75892,-1.44435 -8.37812,-5.85816 -14.56969,-7.26705 -21.27613,-4.84139 -8.22803,2.97601 -13.73016,10.16754 -13.73016,17.94592 0,8.69867 6.39503,16.56103 15.61042,19.1922 2.72325,0.77754 7.441,0.6674 10.18646,-0.23781 2.26686,-0.74741 4.62351,-2.04619 6.18095,-3.40639 2.48554,-2.17077 5.33001,-6.7606 5.42103,-8.74737 l 0.0397,-0.86601 -7.14375,-0.1323 -7.14375,-0.13229 v -2.64583 -2.64583 l 10.61462,-0.0691 c 8.28919,-0.054 10.67442,0.004 10.88761,0.26458 0.36178,0.44224 -0.0646,4.9013 -0.74926,7.83631 -2.01302,8.62903 -8.4531,14.80353 -16.99366,16.29288 -2.34885,0.40961 -7.91016,0.7217 -9.31556,0.52278 z m 92.362,-0.11857 c -10.23335,-1.61367 -17.73553,-8.09075 -20.54207,-17.7352 -0.81084,-2.78638 -1.01597,-8.84036 -0.40216,-11.86961 1.83866,-9.07414 7.62471,-15.85301 15.95757,-18.69573 6.55831,-2.23733 15.12716,-1.7463 21.09229,1.20867 5.98094,2.96282 10.77579,8.7389 12.63382,15.21926 0.53465,1.86471 0.60688,2.69931 0.60688,7.01145 0,4.314 -0.0718,5.14266 -0.60503,6.98369 -2.55248,8.81259 -8.87284,14.98546 -17.65346,17.24153 -2.97217,0.76366 -8.32932,1.07091 -11.08784,0.63594 z m 7.56705,-5.67861 c 4.26927,-0.87486 9.1399,-4.08292 11.77388,-7.75494 1.4342,-1.99936 2.82938,-5.20969 3.27822,-7.54315 0.39454,-2.05113 0.31916,-6.2572 -0.14875,-8.29825 -1.76554,-7.70163 -8.73657,-13.87351 -16.81385,-14.88631 -2.48677,-0.31181 -4.48363,-0.0357 -7.37579,1.01977 -4.88384,1.78238 -9.19231,5.8267 -11.40248,10.70341 -4.24336,9.36293 -0.1809,20.41033 9.27134,25.21231 3.7574,1.90884 7.30586,2.38969 11.41743,1.54716 z m -182.40029,4.1349 c -2.19454,-0.72467 -3.66714,-1.67285 -5.19593,-3.34559 -2.50172,-2.73727 -3.75609,-6.49578 -3.73715,-11.19773 0.0376,-9.34123 4.99127,-15.12413 12.95536,-15.12413 5.11907,0 8.93738,2.22452 11.17812,6.51227 1.5134,2.89594 1.85976,4.80907 1.71901,9.49503 -0.10312,3.43334 -0.21094,4.21429 -0.7992,5.78888 -1.33592,3.57584 -3.3507,5.79168 -6.68475,7.35188 -1.68136,0.7868 -2.08465,0.86429 -4.87978,0.93763 -2.4312,0.0638 -3.35184,-0.0207 -4.55568,-0.41824 z m 6.66811,-4.02472 c 2.12241,-0.57816 4.30761,-2.97704 5.03808,-5.53076 1.07617,-3.76229 0.79777,-8.53938 -0.67291,-11.54644 -0.99039,-2.02503 -1.93631,-2.93144 -4.02206,-3.85407 -1.59676,-0.70632 -4.95744,-0.57309 -6.57358,0.2606 -3.07022,1.58377 -4.61817,5.02203 -4.61086,10.24149 0.0111,7.92139 4.43272,12.17491 10.84133,10.42918 z m 112.24809,-19.22658 0.0675,-23.74634 h 14.02292 14.02292 l 0.0757,2.57968 0.0757,2.57969 -10.39447,0.004 c -5.71696,0.002 -10.66432,0.0759 -10.99412,0.16428 l -0.59963,0.16066 0.0705,6.91333 0.0705,6.91332 10.71563,0.13229 10.71562,0.13229 0.0757,2.57969 0.0757,2.57969 -10.52676,0.004 c -5.78972,0.002 -10.67729,0.0996 -10.86128,0.21639 -0.26064,0.16545 -0.31906,2.07802 -0.26459,8.66106 l 0.0699,8.44872 10.71563,0.13229 10.71562,0.13229 0.0757,2.57969 0.0757,2.57969 h -14.03375 -14.03392 z m -147.58094,22.35729 c -0.0697,-0.1819 -0.0957,-6.46245 -0.0578,-13.95677 l 0.0688,-13.62604 2.31511,-0.0764 2.3151,-0.0764 v 1.6061 c 0,1.0878 0.11293,1.64944 0.34993,1.74038 0.19245,0.0739 1.17472,-0.3485 2.18281,-0.93857 1.00809,-0.59007 2.46742,-1.31094 3.24297,-1.60194 1.49023,-0.55917 6.07782,-1.15511 6.78956,-0.88199 0.34319,0.13169 0.40632,0.53203 0.34372,2.17949 l -0.0767,2.01817 -3.40889,0.16498 c -3.40116,0.16461 -3.41441,0.16779 -5.85007,1.40117 -3.96759,2.00911 -3.57334,0.64818 -3.57334,12.33478 v 10.04386 h -2.25726 c -1.56187,0 -2.29628,-0.10188 -2.38391,-0.33073 z m 54.56907,0.16417 c -0.10242,-0.10242 -0.18622,-5.40285 -0.18622,-11.77874 v -11.59253 l -0.59531,-0.13206 c -0.32742,-0.0726 -1.01203,-0.1642 -1.52136,-0.20348 l -0.92604,-0.0714 v -1.98438 -1.98437 l 1.18544,-0.0843 c 0.65199,-0.0464 1.32332,-0.19877 1.49186,-0.33864 0.16853,-0.13987 0.38317,-0.93536 0.47698,-1.76775 0.4303,-3.81813 1.30513,-5.97886 3.06413,-7.56801 1.99074,-1.79851 3.09535,-2.13297 7.01076,-2.12275 1.99667,0.005 3.74481,0.1379 4.16719,0.31629 0.70133,0.29622 0.7276,0.37862 0.7276,2.28262 0,1.08642 -0.11492,2.04633 -0.25537,2.13313 -0.14045,0.0868 -1.22791,-0.0392 -2.41658,-0.28009 -1.32057,-0.26758 -2.63288,-0.37326 -3.37386,-0.2717 -1.5609,0.21395 -3.15442,1.27486 -3.63212,2.41815 -0.55943,1.3389 -0.94195,4.39109 -0.6017,4.80106 0.19792,0.23848 1.44439,0.35744 4.28716,0.40914 l 4.00809,0.0729 v 1.98437 1.98438 l -3.87594,0.0731 c -2.80364,0.0529 -3.95574,0.1692 -4.16435,0.42055 -0.19595,0.23611 -0.31051,4.02934 -0.35738,11.83319 l -0.069,11.48569 -2.12889,0.076 c -1.17089,0.0418 -2.21269,-0.008 -2.3151,-0.11025 z m 17.13715,-0.1534 c -0.0719,-0.18782 -0.0998,-6.47322 -0.062,-13.96754 l 0.0688,-13.62604 h 2.24896 2.24895 v 13.89062 13.89063 l -2.18698,0.0769 c -1.59988,0.0563 -2.22209,-0.0148 -2.31777,-0.26458 z m -0.27746,-32.57663 c -0.0745,-0.19407 -0.1005,-1.35493 -0.0578,-2.57969 l 0.0776,-2.22684 h 2.51355 2.51354 l 0.0757,2.57968 0.0757,2.57969 h -2.53142 c -1.8657,0 -2.56704,-0.0928 -2.66683,-0.35284 z" fill="#000000"/>
</svg>